<mxfile host="Electron" agent="Mozilla/5.0 (Windows NT 10.0; Win64; x64) AppleWebKit/537.36 (KHTML, like Gecko) draw.io/24.7.8 Chrome/128.0.6613.36 Electron/32.0.1 Safari/537.36" version="24.7.8">
  <diagram name="페이지-1" id="dWVkQpbx_8v0vqDlzdGL">
    <mxGraphModel dx="712" dy="835" grid="1" gridSize="10" guides="1" tooltips="1" connect="1" arrows="1" fold="1" page="1" pageScale="1" pageWidth="827" pageHeight="1169" math="0" shadow="0">
      <root>
        <mxCell id="0" />
        <mxCell id="1" parent="0" />
        <mxCell id="vc1CR749yppbY2TlLqs8-4" value="" style="edgeStyle=orthogonalEdgeStyle;rounded=0;orthogonalLoop=1;jettySize=auto;html=1;entryX=0.5;entryY=0;entryDx=0;entryDy=0;" edge="1" parent="1" source="vc1CR749yppbY2TlLqs8-1" target="vc1CR749yppbY2TlLqs8-2">
          <mxGeometry relative="1" as="geometry" />
        </mxCell>
        <mxCell id="vc1CR749yppbY2TlLqs8-1" value="START" style="strokeWidth=2;html=1;shape=mxgraph.flowchart.terminator;whiteSpace=wrap;" vertex="1" parent="1">
          <mxGeometry x="167" y="21" width="150" height="80" as="geometry" />
        </mxCell>
        <mxCell id="vc1CR749yppbY2TlLqs8-6" value="" style="group" vertex="1" connectable="0" parent="1">
          <mxGeometry x="62" y="129" width="350" height="110" as="geometry" />
        </mxCell>
        <mxCell id="vc1CR749yppbY2TlLqs8-2" value="" style="verticalLabelPosition=bottom;verticalAlign=top;html=1;shape=hexagon;perimeter=hexagonPerimeter2;arcSize=6;size=0.27;" vertex="1" parent="vc1CR749yppbY2TlLqs8-6">
          <mxGeometry x="10" width="340" height="110" as="geometry" />
        </mxCell>
        <mxCell id="vc1CR749yppbY2TlLqs8-3" value="&lt;div&gt;&amp;nbsp; &amp;nbsp; &amp;nbsp; &amp;nbsp; int[][] score = {{1,1,290},{1,7,280},{9,7,270},{9,9,260}};&lt;/div&gt;&lt;div&gt;int sum=0;&lt;/div&gt;&lt;div&gt;int total =0;&lt;/div&gt;&lt;div&gt;int i;&lt;/div&gt;" style="text;html=1;align=center;verticalAlign=middle;whiteSpace=wrap;rounded=0;" vertex="1" parent="vc1CR749yppbY2TlLqs8-6">
          <mxGeometry x="2" y="31" width="350" height="60" as="geometry" />
        </mxCell>
        <mxCell id="vc1CR749yppbY2TlLqs8-58" value="" style="edgeStyle=orthogonalEdgeStyle;rounded=0;orthogonalLoop=1;jettySize=auto;html=1;entryX=0.335;entryY=0.002;entryDx=0;entryDy=0;entryPerimeter=0;" edge="1" parent="1" source="vc1CR749yppbY2TlLqs8-41" target="vc1CR749yppbY2TlLqs8-43">
          <mxGeometry relative="1" as="geometry" />
        </mxCell>
        <mxCell id="vc1CR749yppbY2TlLqs8-41" value="sum = score[0][2];" style="rounded=1;whiteSpace=wrap;html=1;absoluteArcSize=1;arcSize=0;strokeWidth=2;" vertex="1" parent="1">
          <mxGeometry x="172" y="279" width="141" height="50" as="geometry" />
        </mxCell>
        <mxCell id="vc1CR749yppbY2TlLqs8-87" value="" style="edgeStyle=orthogonalEdgeStyle;rounded=0;orthogonalLoop=1;jettySize=auto;html=1;" edge="1" parent="1" source="vc1CR749yppbY2TlLqs8-43" target="vc1CR749yppbY2TlLqs8-86">
          <mxGeometry relative="1" as="geometry" />
        </mxCell>
        <mxCell id="vc1CR749yppbY2TlLqs8-43" value="i=0;i&amp;lt;3;i++" style="swimlane;whiteSpace=wrap;html=1;startSize=23;" vertex="1" parent="1">
          <mxGeometry x="11" y="370" width="690" height="380" as="geometry" />
        </mxCell>
        <mxCell id="vc1CR749yppbY2TlLqs8-54" value="" style="group" vertex="1" connectable="0" parent="vc1CR749yppbY2TlLqs8-43">
          <mxGeometry x="45" y="50" width="640" height="250" as="geometry" />
        </mxCell>
        <mxCell id="vc1CR749yppbY2TlLqs8-50" value="" style="edgeStyle=orthogonalEdgeStyle;rounded=0;orthogonalLoop=1;jettySize=auto;html=1;" edge="1" parent="vc1CR749yppbY2TlLqs8-54" source="vc1CR749yppbY2TlLqs8-46" target="vc1CR749yppbY2TlLqs8-49">
          <mxGeometry relative="1" as="geometry" />
        </mxCell>
        <mxCell id="vc1CR749yppbY2TlLqs8-84" value="" style="edgeStyle=orthogonalEdgeStyle;rounded=0;orthogonalLoop=1;jettySize=auto;html=1;entryX=0.5;entryY=0;entryDx=0;entryDy=0;entryPerimeter=0;" edge="1" parent="vc1CR749yppbY2TlLqs8-54" source="vc1CR749yppbY2TlLqs8-46" target="vc1CR749yppbY2TlLqs8-81">
          <mxGeometry relative="1" as="geometry" />
        </mxCell>
        <mxCell id="vc1CR749yppbY2TlLqs8-46" value="score[i][0]==score[i+1][0]" style="rhombus;whiteSpace=wrap;html=1;" vertex="1" parent="vc1CR749yppbY2TlLqs8-54">
          <mxGeometry x="28" width="140" height="140" as="geometry" />
        </mxCell>
        <mxCell id="vc1CR749yppbY2TlLqs8-49" value="sum += score[i+1][2];&amp;nbsp;" style="rounded=0;whiteSpace=wrap;html=1;" vertex="1" parent="vc1CR749yppbY2TlLqs8-54">
          <mxGeometry y="180" width="196" height="70" as="geometry" />
        </mxCell>
        <mxCell id="vc1CR749yppbY2TlLqs8-53" value="&lt;div&gt;&lt;span style=&quot;background-color: initial;&quot;&gt;total+=sum;&lt;/span&gt;&lt;/div&gt;&lt;div&gt;&lt;span style=&quot;background-color: initial;&quot;&gt;sum = score[i+1][2];&amp;nbsp;&lt;/span&gt;&lt;br&gt;&lt;/div&gt;" style="rounded=0;whiteSpace=wrap;html=1;" vertex="1" parent="vc1CR749yppbY2TlLqs8-54">
          <mxGeometry x="304" y="200" width="159" height="70" as="geometry" />
        </mxCell>
        <mxCell id="vc1CR749yppbY2TlLqs8-78" value="Y" style="text;html=1;align=center;verticalAlign=middle;whiteSpace=wrap;rounded=0;" vertex="1" parent="vc1CR749yppbY2TlLqs8-54">
          <mxGeometry x="44" y="120" width="60" height="30" as="geometry" />
        </mxCell>
        <mxCell id="vc1CR749yppbY2TlLqs8-79" value="N" style="text;html=1;align=center;verticalAlign=middle;whiteSpace=wrap;rounded=0;" vertex="1" parent="vc1CR749yppbY2TlLqs8-54">
          <mxGeometry x="149.5" y="46" width="60" height="30" as="geometry" />
        </mxCell>
        <mxCell id="vc1CR749yppbY2TlLqs8-85" value="" style="edgeStyle=orthogonalEdgeStyle;rounded=0;orthogonalLoop=1;jettySize=auto;html=1;" edge="1" parent="vc1CR749yppbY2TlLqs8-54" source="vc1CR749yppbY2TlLqs8-81" target="vc1CR749yppbY2TlLqs8-53">
          <mxGeometry relative="1" as="geometry" />
        </mxCell>
        <mxCell id="vc1CR749yppbY2TlLqs8-81" value="score[i][0] + &quot;반 총점: &quot; + sum + &quot;\n&quot;" style="strokeWidth=2;html=1;shape=mxgraph.flowchart.display;whiteSpace=wrap;" vertex="1" parent="vc1CR749yppbY2TlLqs8-54">
          <mxGeometry x="260.5" y="95" width="246" height="60" as="geometry" />
        </mxCell>
        <mxCell id="vc1CR749yppbY2TlLqs8-65" value="" style="edgeStyle=orthogonalEdgeStyle;rounded=0;orthogonalLoop=1;jettySize=auto;html=1;" edge="1" parent="vc1CR749yppbY2TlLqs8-43" source="vc1CR749yppbY2TlLqs8-49">
          <mxGeometry relative="1" as="geometry">
            <mxPoint x="261" y="380" as="targetPoint" />
            <Array as="points">
              <mxPoint x="143" y="340" />
              <mxPoint x="262" y="340" />
            </Array>
          </mxGeometry>
        </mxCell>
        <mxCell id="vc1CR749yppbY2TlLqs8-68" value="" style="edgeStyle=orthogonalEdgeStyle;rounded=0;orthogonalLoop=1;jettySize=auto;html=1;" edge="1" parent="vc1CR749yppbY2TlLqs8-43" source="vc1CR749yppbY2TlLqs8-53">
          <mxGeometry relative="1" as="geometry">
            <mxPoint x="261" y="380" as="targetPoint" />
            <Array as="points">
              <mxPoint x="419" y="340" />
              <mxPoint x="262" y="340" />
            </Array>
          </mxGeometry>
        </mxCell>
        <mxCell id="vc1CR749yppbY2TlLqs8-73" value="" style="edgeStyle=orthogonalEdgeStyle;rounded=0;orthogonalLoop=1;jettySize=auto;html=1;" edge="1" parent="1" source="vc1CR749yppbY2TlLqs8-56" target="vc1CR749yppbY2TlLqs8-59">
          <mxGeometry relative="1" as="geometry" />
        </mxCell>
        <mxCell id="vc1CR749yppbY2TlLqs8-56" value="&lt;div&gt;score[i][0] + &quot;반 총점: &quot; + sum + &quot;\n&quot;&lt;/div&gt;" style="strokeWidth=2;html=1;shape=mxgraph.flowchart.display;whiteSpace=wrap;" vertex="1" parent="1">
          <mxGeometry x="194" y="880" width="324" height="60" as="geometry" />
        </mxCell>
        <mxCell id="vc1CR749yppbY2TlLqs8-57" value="" style="edgeStyle=orthogonalEdgeStyle;rounded=0;orthogonalLoop=1;jettySize=auto;html=1;" edge="1" parent="1" source="vc1CR749yppbY2TlLqs8-2" target="vc1CR749yppbY2TlLqs8-41">
          <mxGeometry relative="1" as="geometry" />
        </mxCell>
        <mxCell id="vc1CR749yppbY2TlLqs8-80" value="" style="edgeStyle=orthogonalEdgeStyle;rounded=0;orthogonalLoop=1;jettySize=auto;html=1;" edge="1" parent="1" source="vc1CR749yppbY2TlLqs8-59" target="vc1CR749yppbY2TlLqs8-76">
          <mxGeometry relative="1" as="geometry" />
        </mxCell>
        <mxCell id="vc1CR749yppbY2TlLqs8-59" value="&lt;div&gt;&lt;div&gt;&quot;전체 총점: &quot; + total&amp;nbsp;&lt;/div&gt;&lt;/div&gt;" style="strokeWidth=2;html=1;shape=mxgraph.flowchart.display;whiteSpace=wrap;" vertex="1" parent="1">
          <mxGeometry x="244" y="965" width="224" height="60" as="geometry" />
        </mxCell>
        <mxCell id="vc1CR749yppbY2TlLqs8-76" value="END" style="strokeWidth=2;html=1;shape=mxgraph.flowchart.terminator;whiteSpace=wrap;" vertex="1" parent="1">
          <mxGeometry x="281" y="1053" width="150" height="80" as="geometry" />
        </mxCell>
        <mxCell id="vc1CR749yppbY2TlLqs8-77" value="" style="endArrow=classic;html=1;rounded=0;entryX=0.5;entryY=0;entryDx=0;entryDy=0;" edge="1" parent="1" target="vc1CR749yppbY2TlLqs8-46">
          <mxGeometry width="50" height="50" relative="1" as="geometry">
            <mxPoint x="350" y="390" as="sourcePoint" />
            <mxPoint x="610" y="640" as="targetPoint" />
            <Array as="points">
              <mxPoint x="350" y="420" />
            </Array>
          </mxGeometry>
        </mxCell>
        <mxCell id="vc1CR749yppbY2TlLqs8-89" value="" style="edgeStyle=orthogonalEdgeStyle;rounded=0;orthogonalLoop=1;jettySize=auto;html=1;" edge="1" parent="1" source="vc1CR749yppbY2TlLqs8-86">
          <mxGeometry relative="1" as="geometry">
            <mxPoint x="356" y="880" as="targetPoint" />
          </mxGeometry>
        </mxCell>
        <mxCell id="vc1CR749yppbY2TlLqs8-86" value="&lt;div&gt;&lt;b&gt;total += sum;&lt;/b&gt;&lt;/div&gt;" style="rounded=0;whiteSpace=wrap;html=1;" vertex="1" parent="1">
          <mxGeometry x="272" y="790" width="168" height="60" as="geometry" />
        </mxCell>
      </root>
    </mxGraphModel>
  </diagram>
</mxfile>
